<?xml version="1.0" standalone="no"?>
<!DOCTYPE svg PUBLIC "-//W3C//DTD SVG 20010904//EN"
 "http://www.w3.org/TR/2001/REC-SVG-20010904/DTD/svg10.dtd">
<svg version="1.0" xmlns="http://www.w3.org/2000/svg"
 width="160.000000pt" height="45.000000pt" viewBox="0 0 886.000000 282.000000"
 preserveAspectRatio="xMidYMid meet">

<g transform="translate(0.000000,282.000000) scale(0.100000,-0.100000)"
fill="#08acfe"  stroke="none">
<path   fill="#f4f2f2" d="M680 2409 c-158 -31 -294 -173 -320 -335 -6 -34 -10 -329 -10 -692 0
-542 2 -643 16 -703 29 -130 129 -242 260 -291 l59 -23 3800 0 3800 0 57 22
c118 45 205 128 250 240 l23 58 3 670 c2 474 0 688 -8 730 -32 164 -162 293
-330 325 -67 13 -7535 12 -7600 -1z m7665 -108 c75 -35 147 -112 172 -184 17
-48 18 -100 18 -732 l0 -680 -28 -60 c-34 -73 -85 -128 -152 -163 l-50 -27
-3802 -3 -3802 -2 -54 20 c-70 26 -134 83 -172 151 l-30 54 0 715 0 715 23 43
c45 85 118 147 202 173 14 4 1733 8 3820 8 l3795 1 60 -29z"/>
<path d="M1917 2124 c-4 -4 -7 -33 -7 -65 0 -32 -4 -61 -10 -64 -5 -3 -10 -15
-10 -26 0 -11 -10 -23 -24 -29 -13 -5 -31 -19 -40 -32 -16 -22 -16 -22 -16 22
0 39 -5 50 -42 87 l-42 43 -214 0 -214 0 -39 -39 c-35 -35 -39 -44 -39 -89 l0
-50 -139 -4 c-120 -3 -142 -6 -160 -22 -21 -19 -21 -24 -21 -493 l0 -474 25
-24 24 -25 594 0 c586 0 595 0 621 21 l26 20 0 474 c0 260 -3 480 -6 489 -3 8
-21 20 -40 26 -32 11 -34 15 -34 54 0 23 -7 51 -14 62 -8 12 -16 47 -18 80
l-3 59 -75 3 c-42 1 -79 0 -83 -4z m108 -79 c0 -25 -4 -30 -27 -33 -26 -3 -28
-1 -28 33 0 34 2 36 28 33 23 -3 27 -8 27 -33z m-303 -62 c21 -20 28 -36 28
-65 l0 -38 -240 0 -240 0 0 34 c0 22 9 45 26 65 l26 31 186 0 186 0 28 -27z
m328 -33 c0 -5 -25 -10 -55 -10 -30 0 -55 5 -55 10 0 6 25 10 55 10 30 0 55
-4 55 -10z m0 -351 l0 -290 -52 3 -53 3 -3 288 -2 287 55 0 55 0 0 -291z
m-228 74 c3 -124 5 -148 18 -148 13 0 15 24 18 148 2 122 5 147 17 147 13 0
15 -30 15 -195 l0 -195 -120 0 c-112 0 -120 1 -120 19 0 35 -38 51 -119 51
-79 0 -111 -15 -111 -52 0 -17 -12 -18 -204 -18 -202 0 -205 0 -233 24 l-28
24 -3 171 -3 171 435 0 435 0 3 -147z m318 -26 c0 -167 -5 -197 -32 -197 -4 0
-8 83 -8 185 0 178 1 185 20 185 19 0 20 -7 20 -173z m-540 -252 l0 -55 -65 0
-65 0 0 55 0 55 65 0 65 0 0 -55z m-605 0 c29 -10 91 -14 233 -15 l192 0 0
-78 c0 -47 5 -83 12 -90 7 -7 44 -12 97 -12 112 0 121 8 121 107 l0 73 120 0
120 0 0 -114 c0 -113 1 -115 44 -218 57 -133 67 -134 121 -13 39 87 40 94 45
225 4 119 7 135 23 138 16 3 17 -12 15 -250 l-3 -253 -590 0 -590 0 -3 258
c-1 141 -1 257 0 257 2 0 21 -7 43 -15z m605 -130 c0 -24 -2 -25 -64 -25 -65
0 -83 9 -72 35 4 11 23 15 71 15 63 0 65 -1 65 -25z m450 -59 c0 -48 -7 -78
-27 -122 l-27 -59 -27 60 c-26 58 -39 161 -22 178 3 4 28 7 55 7 l48 0 0 -64z"/>
<path fill="#08acfe" d="M1154 975 c-3 -8 -3 -19 1 -25 4 -7 133 -10 391 -10 343 0 385 2 391
16 3 9 0 20 -8 25 -8 5 -184 9 -392 9 -321 0 -378 -2 -383 -15z"/>
<path d="M6323 1695 c-40 -17 -73 -69 -73 -112 0 -33 0 -33 -51 -33 l-50 0 3
-37 c3 -38 3 -38 51 -41 l47 -3 0 -140 0 -139 50 0 50 0 0 140 0 140 60 0 60
0 0 40 0 40 -60 0 c-57 0 -60 1 -60 25 0 36 39 58 94 54 44 -4 45 -3 51 30 4
23 2 37 -7 42 -21 14 -130 10 -165 -6z"/>
<path d="M6980 1660 l0 -40 50 0 50 0 0 -175 0 -175 -50 0 -50 0 0 -40 0 -41
153 3 152 3 0 35 0 35 -52 3 -53 3 0 215 0 214 -100 0 -100 0 0 -40z"/>
<path d="M7496 1671 c-24 -26 -17 -62 15 -80 24 -13 29 -13 53 2 31 21 34 56
8 80 -25 22 -55 21 -76 -2z"/>
<path d="M2645 1666 c-94 -41 -137 -181 -104 -337 35 -164 237 -200 319 -57
23 39 25 54 25 158 0 107 -2 118 -27 162 -45 75 -137 107 -213 74z m113 -97
c24 -25 32 -62 32 -145 0 -114 -37 -167 -103 -150 -36 9 -47 47 -47 157 0 95
9 135 34 151 21 15 65 8 84 -13z"/>
<path d="M5837 1633 c-4 -3 -7 -24 -7 -45 0 -38 0 -38 -41 -38 l-40 0 3 -37
c3 -36 5 -38 39 -41 l36 -3 5 -104 c5 -118 18 -148 76 -172 25 -11 53 -13 88
-9 69 8 84 15 84 36 0 43 -10 50 -71 50 -55 0 -60 2 -69 26 -6 14 -10 59 -10
100 l0 74 65 0 65 0 0 40 0 40 -65 0 -65 0 0 45 0 45 -43 0 c-24 0 -47 -3 -50
-7z"/>
<path d="M3086 1545 c-21 -11 -31 -12 -36 -5 -4 6 -26 10 -51 8 l-44 -3 0
-245 0 -245 48 -3 47 -3 0 80 0 80 37 -15 c122 -52 226 91 182 251 -13 48 -43
83 -86 101 -41 18 -61 17 -97 -1z m61 -83 c17 -11 33 -58 33 -98 0 -71 -43
-114 -95 -94 -29 11 -35 28 -35 105 0 44 5 68 16 79 16 17 61 21 81 8z"/>
<path d="M3485 1553 c-76 -20 -121 -68 -136 -147 -31 -168 131 -279 284 -193
41 23 47 45 18 71 -18 17 -21 17 -45 0 -40 -26 -100 -23 -130 5 -48 45 -37 51
89 51 l115 0 0 54 c0 58 -23 103 -70 137 -27 20 -92 31 -125 22z m92 -113 l12
-25 -65 -3 c-37 -2 -69 -1 -72 2 -2 3 3 17 12 31 15 22 23 26 59 23 33 -2 44
-8 54 -28z"/>
<path d="M3910 1549 c-13 -5 -32 -17 -41 -25 -15 -13 -17 -13 -22 6 -4 16 -13
20 -51 20 l-46 0 0 -180 0 -180 50 0 50 0 0 124 c0 142 6 156 70 156 29 0 42
-5 50 -19 5 -11 10 -74 10 -140 l0 -121 50 0 50 0 -1 128 c0 139 -11 186 -49
213 -32 23 -88 31 -120 18z"/>
<path d="M4688 1542 c-30 -16 -38 -17 -38 -6 0 10 -13 14 -45 14 l-45 0 0
-250 0 -250 50 0 50 0 0 80 0 81 32 -17 c36 -18 86 -14 125 11 82 54 83 276 1
328 -41 27 -89 30 -130 9z m76 -94 c10 -14 16 -44 16 -81 0 -48 -4 -62 -25
-82 -28 -29 -42 -31 -73 -9 -19 13 -22 24 -22 93 0 46 5 82 12 89 21 21 75 15
92 -10z"/>
<path d="M5055 1545 c-48 -17 -93 -67 -101 -112 -11 -58 1 -151 22 -181 34
-46 101 -74 159 -68 105 12 168 107 149 227 -17 107 -127 172 -229 134z m108
-93 c20 -22 30 -88 19 -126 -4 -16 -20 -38 -34 -49 -51 -38 -100 7 -100 93 0
67 22 100 66 100 19 0 40 -8 49 -18z"/>
<path d="M5570 1549 c-14 -6 -35 -20 -47 -31 l-23 -21 0 26 c0 25 -3 27 -45
27 l-45 0 0 -181 0 -180 48 3 47 3 3 111 c3 138 12 150 103 148 64 -1 59 -7
74 69 6 32 -62 47 -115 26z"/>
<path d="M6668 1550 c-46 -14 -85 -48 -102 -90 -29 -74 -15 -181 31 -232 8 -9
35 -25 59 -34 62 -24 125 -12 173 31 105 95 66 291 -63 324 -51 12 -60 13 -98
1z m96 -99 c41 -45 27 -163 -21 -182 -35 -13 -41 -12 -68 16 -21 20 -25 34
-25 82 0 74 18 103 64 103 20 0 40 -8 50 -19z"/>
<path d="M7869 1550 c-105 -32 -153 -169 -96 -280 57 -115 238 -116 293 -2 55
116 7 252 -101 281 -45 12 -59 13 -96 1z m96 -100 c25 -28 31 -109 11 -147
-29 -57 -107 -48 -122 13 -9 36 1 120 16 139 18 22 73 19 95 -5z"/>
<path d="M7387 1544 c-4 -4 -7 -22 -7 -41 0 -33 0 -33 50 -33 l50 0 0 -100 0
-100 -50 0 -50 0 0 -40 0 -40 150 0 150 0 0 40 0 40 -45 0 -44 0 -3 138 -3
137 -95 3 c-53 1 -99 0 -103 -4z"/>
</g>
</svg>
